<svg width="761" height="761" viewBox="0 0 761 761" fill="none" xmlns="http://www.w3.org/2000/svg">
<g clip-path="url(#clip0_2019_52)">
<mask id="mask0_2019_52" style="mask-type:luminance" maskUnits="userSpaceOnUse" x="0" y="0" width="761" height="761">
<path d="M578.737 0H182.263C81.6021 0 0 81.7979 0 182.701V578.299C0 679.202 81.6021 761 182.263 761H578.737C679.398 761 761 679.202 761 578.299V182.701C761 81.7979 679.398 0 578.737 0Z" fill="white"/>
</mask>
<g mask="url(#mask0_2019_52)">
<path d="M765.359 -6.20544H-6.2016V767.205H765.359V-6.20544Z" fill="#A76000"/>
<mask id="mask1_2019_52" style="mask-type:luminance" maskUnits="userSpaceOnUse" x="-7" y="-7" width="773" height="775">
<path d="M765.359 -6.20544H-6.2016V767.205H765.359V-6.20544Z" fill="white"/>
</mask>
<g mask="url(#mask1_2019_52)">
<path opacity="0.3" d="M379.579 1028.82C638.567 1028.82 848.518 818.363 848.518 558.754C848.518 299.145 638.567 88.6901 379.579 88.6901C120.591 88.6901 -89.3607 299.145 -89.3607 558.754C-89.3607 818.363 120.591 1028.82 379.579 1028.82Z" fill="#FACC14"/>
<path opacity="0.3" d="M379.579 922.795C580.152 922.795 742.748 759.808 742.748 558.754C742.748 357.7 580.152 194.713 379.579 194.713C179.006 194.713 16.4089 357.7 16.4089 558.754C16.4089 759.808 179.006 922.795 379.579 922.795Z" fill="#FACC14"/>
<path d="M379.579 798C511.395 798 618.252 690.886 618.252 558.754C618.252 426.622 511.395 319.508 379.579 319.508C247.763 319.508 140.905 426.622 140.905 558.754C140.905 690.886 247.763 798 379.579 798Z" fill="#FACC14"/>
</g>
</g>
<rect width="1025" height="117" transform="translate(-198 644)" fill="black"/>
</g>
<defs>
<clipPath id="clip0_2019_52">
<rect width="761" height="761" fill="white"/>
</clipPath>
</defs>
</svg>
