<svg width="761" height="761" viewBox="0 0 761 761" fill="none" xmlns="http://www.w3.org/2000/svg">
<mask id="mask0_2019_76" style="mask-type:luminance" maskUnits="userSpaceOnUse" x="0" y="0" width="761" height="761">
<path d="M578.737 0H182.263C81.6021 0 0 81.7979 0 182.701V578.299C0 679.202 81.6021 761 182.263 761H578.737C679.398 761 761 679.202 761 578.299V182.701C761 81.7979 679.398 0 578.737 0Z" fill="white"/>
</mask>
<g mask="url(#mask0_2019_76)">
<path d="M794.869 1271.29C1090.17 1271.29 1329.55 1088.26 1329.55 862.477C1329.55 636.694 1090.17 453.66 794.869 453.66C499.57 453.66 260.184 636.694 260.184 862.477C260.184 1088.26 499.57 1271.29 794.869 1271.29Z" fill="white"/>
<path d="M-31.7117 1271.29C263.587 1271.29 502.974 1088.26 502.974 862.477C502.974 636.694 263.587 453.66 -31.7117 453.66C-327.01 453.66 -566.397 636.694 -566.397 862.477C-566.397 1088.26 -327.01 1271.29 -31.7117 1271.29Z" fill="white"/>
<path d="M803.719 762V532.709C596.097 540.208 416.968 630.823 321.891 762H803.719Z" fill="#050507"/>
<path d="M440.968 762C346.465 631.631 168.936 541.326 -37.0746 532.864V762H440.968Z" fill="#050507"/>
<path d="M510.886 324.972C450.977 347.194 403.748 394.537 381.579 454.589C359.409 394.537 312.18 347.194 252.272 324.972C312.18 302.75 359.409 255.407 381.579 195.355C403.748 255.407 450.977 302.75 510.886 324.972Z" fill="white"/>
</g>
</svg>
